<svg xmlns="http://www.w3.org/2000/svg" width="30" height="32" viewBox="0 0 30 32">
<g id="Group_3428" data-name="Group 3428" transform="translate(-287 -366)">
<path d="M 276.662357929353,376.87058445252376 L 283.7606064536443,385.0537917437318 L 282.1331683032693,407.97597546698086 L 259.21098458002035,406.34853731660587 L 261.38090211385355,375.7856256856071 L 276.662357929353,376.87058445252376" data-name="Path 2106" fill="#6e7679" id="Path_2106" />
<path d="M 275.0969776344936,385.39859342580985 L 275.63945701795194,377.75786551806016 L 262.26818317939,376.8085265970081 L 260.2338854914213,405.46125625106947 L 281.2458872377329,406.95307455557986 L 282.7377055422433,385.9410728092682 L 275.0969776344936,385.39859342580985" data-name="Path 2107" fill="#fff4ff" id="Path_2107" />
<path d="M 267.29684421821736,394.4697677917254 A 2.4253851683797603,2.335345299813546 4.061093592816164 0,1 268.36957124126934,394.75998858437384 L 268.7051847401733,393.7509584095879 A 3.2377029126693606,3.7973434684679463 4.061093592816164 0,0 267.3126884095509,393.39483876850727 A 2.903905712979647,2.537702519254236 4.061093592816164 0,0 263.97070099975355,396.21486168902277 A 3.1160377866043047,0.8325116619153239 4.061093592816164 0,0 266.76530184375986,399.2929900025133 A 2.6560571266959005,4.477141395865364 4.061093592816164 0,0 268.25268183512975,399.1509359988812 L 268.13347434582136,398.1259326575064 A 3.372560380771978,2.21414606632555 4.061093592816164 0,1 267.03970445327684,398.2402578323637 A 2.7821435181515484,0.5991607256460516 4.061093592816164 0,1 267.2993704415681,394.47474667643655 L 267.29684421821736,394.46976779172536 M 271.7729815489908,396.144872550497 C 271.5481879859294,396.452725188265 271.23689491872557,396.26743996627414 270.7691070357569,395.2634389318516 C 271.1886250264391,394.08877531648653 271.47886339765273,393.8540469415896 271.640185422168,394.7704587833908 A 3.89347907615236,1.4470428690605854 4.061093592816164 0,1 272.8205216855719,395.1268738873189 L 273.1812330378005,394.1023473228137 A 3.9285014017798616,1.6596009499722582 4.061093592816164 0,0 271.7412418933115,393.71213865410965 C 270.372871242633,392.3572482727025 269.5050156498903,393.04819774340075 269.4535180917143,395.28426297498515 C 269.6642471780113,395.4728473509879 270.24571506108043,396.0439984066827 270.9037319230896,397.085298446887 C 269.7033240351117,397.0054482297647 269.96101364331776,397.2291635293327 271.8071862626884,397.9615222056014 C 269.47301193096484,400.13487448141876 269.14033694465365,400.358910681876 270.8548860926716,398.516889020409 A 2.5885184270118327,3.7310411929709524 4.061093592816164 0,1 269.4476105211452,398.05797010632324 L 269.10792267479775,399.11086665665584 A 3.124690469468316,3.2740619390417782 4.061093592816164 0,0 270.7068945432472,399.57379664544334 C 270.40023330999264,398.6658475943796 271.1974512191745,397.9017296795884 273.14243101001864,397.96129180054174 C 273.1243513010404,396.4534156820378 272.6861470662415,395.8924361147828 271.7729815489908,396.144872550497 M 277.9297913415328,394.2388670941992 L 277.02732789477864,396.6340712354587 C 277.47921409135716,398.03375741783526 277.25117289062854,398.7038992090791 276.3650920712695,398.62013316088314 L 276.33834952359234,398.618234483041 C 276.13364797801404,398.03104503036457 276.0023830414446,397.36515014858657 275.9747383114283,396.5334216238528 L 275.4513302264564,394.06290034418987 L 274.03110992660345,393.96206698878956 L 275.45993526884655,399.82294359147767 L 276.97088921260405,399.93021888955656 L 279.30703254690457,394.3366490030675 L 277.9297913415328,394.2388670941992" data-name="Path 2108" fill="#ffffff" id="Path_2108" />
<path d="M 9.22294725114503,6.557446255694928 L 37.875676905206376,8.591743943663596 L 37.19757767588348,18.142653828350713 L 8.54484802182214,16.108356140382043 L 9.222947251145031,6.557446255694927" data-name="Rectangle 2550" fill="#5aa400" height="10" id="Rectangle_2550" transform="translate(287 382)" width="30" />
</g>
<path d="M 276.662357929353,376.87058445252376 L 283.7606064536443,385.0537917437318 L 282.1331683032693,407.97597546698086 L 259.21098458002035,406.34853731660587 L 261.38090211385355,375.7856256856071 L 276.662357929353,376.87058445252376" data-name="Path 2106" fill="#857173" id="Path_2106" /><path d="M 275.0969776344936,385.39859342580985 L 275.63945701795194,377.75786551806016 L 262.26818317939,376.8085265970081 L 260.2338854914213,405.46125625106947 L 281.2458872377329,406.95307455557986 L 282.7377055422433,385.9410728092682 L 275.0969776344936,385.39859342580985" data-name="Path 2107" fill="#fafcff" id="Path_2107" /><path d="M 9.22294725114503,6.557446255694928 L 37.875676905206376,8.591743943663596 L 37.19757767588348,18.142653828350713 L 8.54484802182214,16.108356140382043 L 9.222947251145031,6.557446255694927" data-name="Rectangle 2550" fill="#6da202" height="10" id="Rectangle_2550" transform="translate(287 382)" width="30" /><path d="M 267.29684421821736,394.4697677917254 A 3.152086292391479,2.2284241064698347 4.061093592816164 0,1 268.36957124126934,394.75998858437384 L 268.7051847401733,393.7509584095879 A 2.8153275748120543,1.7834485263250721 4.061093592816164 0,0 267.3126884095509,393.39483876850727 A 1.8446085153416476,3.2155814445739916 4.061093592816164 0,0 263.97070099975355,396.21486168902277 A 0.9034815347664824,3.4858968337432437 4.061093592816164 0,0 266.76530184375986,399.2929900025133 A 3.0798132076766267,4.537285168760168 4.061093592816164 0,0 268.25268183512975,399.1509359988812 L 268.13347434582136,398.1259326575064 A 2.881149342858525,5.27504566944293 4.061093592816164 0,1 267.03970445327684,398.2402578323637 A 0.9100392236412556,3.0807418348798783 4.061093592816164 0,1 267.2993704415681,394.47474667643655 L 267.29684421821736,394.46976779172536 M 271.7729815489908,396.144872550497 C 270.59139253998933,396.238312763223 270.2800994727855,396.05302754123215 270.7691070357569,395.2634389318516 C 271.763087835955,396.2314417436752 272.0533262071686,395.9967133687783 271.640185422168,394.7704587833908 A 2.2979247161548675,1.1857818331689003 4.061093592816164 0,1 272.8205216855719,395.1268738873189 L 273.1812330378005,394.1023473228137 A 4.137348268996317,2.7952124098810387 4.061093592816164 0,0 271.7412418933115,393.71213865410965 C 269.7971085686211,392.72158662545576 268.92925297587846,393.412536096154 269.4535180917143,395.28426297498515 C 270.1457957150276,394.58464496032144 270.7272635980967,395.15579601601627 270.9037319230896,397.085298446887 C 269.8241207146848,397.17057201107497 270.0818103228909,397.394287310643 271.8071862626884,397.9615222056014 C 272.1902155957968,399.07698252795063 271.8575406094856,399.3010187284079 270.8548860926716,398.516889020409 A 2.959215712533905,2.9555842044638543 4.061093592816164 0,1 269.4476105211452,398.05797010632324 L 269.10792267479775,399.11086665665584 A 4.153862945259791,3.793896323268083 4.061093592816164 0,0 270.7068945432472,399.57379664544334 C 272.24033878098453,401.83673688129346 273.0375566901664,401.07261896650226 273.14243101001864,397.96129180054174 C 274.8263945904981,398.2214020606862 274.38819035569924,397.6604224934312 271.7729815489908,396.144872550497 M 277.9297913415328,394.2388670941992 L 277.02732789477864,396.6340712354587 C 276.40064282535184,398.32891762846396 276.1726016246232,398.9990594197078 276.3650920712695,398.62013316088314 L 276.33834952359234,398.618234483041 C 277.18006489581813,398.4961988195386 277.0487999592487,397.8303039377606 275.9747383114283,396.5334216238528 L 275.4513302264564,394.06290034418987 L 274.03110992660345,393.96206698878956 L 275.45993526884655,399.82294359147767 L 276.97088921260405,399.93021888955656 L 279.30703254690457,394.3366490030675 L 277.9297913415328,394.2388670941992" data-name="Path 2108" fill="#fefff4" id="Path_2108" /></svg>