<svg viewBox="0 0 600 400" xmlns="http://www.w3.org/2000/svg">
  <rect x="40" y="300" width="420" height="40" fill="#2D2D42"/>
  <rect x="50" y="50" width="400" height="250" fill="#2D2D42"/>
  <circle cx="80" cy="70" r="3" fill="#E0E0E0"/>
  <circle cx="100" cy="70" r="3" fill="#E0E0E0"/>
  <circle cx="120" cy="70" r="3" fill="#E0E0E0"/>
  <rect x="70" y="80" width="180" height="200" fill="#5A5A5A"/>
  <rect x="250" y="80" width="200" height="200" fill="#2D2D42"/>
  <text x="110" y="150" font-family="Arial" font-size="40" fill="white">文</text>
  <text x="110" y="200" font-family="Arial" font-size="30" fill="white">&lt;/&gt;</text>
  <rect x="270" y="120" width="150" height="10" fill="#4CAF50"/>
  <rect x="270" y="150" width="180" height="10" fill="#4CAF50"/>
  <rect x="270" y="180" width="160" height="10" fill="#4CAF50"/>
  <rect x="270" y="210" width="140" height="10" fill="#4CAF50"/>
  <rect x="475" y="150" width="15" height="150" fill="#5D4037"/>
  <ellipse cx="480" cy="220" rx="40" ry="40" fill="#4CAF50"/>
  <ellipse cx="480" cy="180" rx="35" ry="35" fill="#4CAF50"/>
  <ellipse cx="480" cy="140" rx="30" ry="30" fill="#4CAF50"/>
</svg>